<?xml version="1.0" encoding="utf-8"?>
<!-- Generator: Adobe Illustrator 25.0.0, SVG Export Plug-In . SVG Version: 6.00 Build 0)  -->
<svg version="1.1" id="Capa_1" xmlns="http://www.w3.org/2000/svg" xmlns:xlink="http://www.w3.org/1999/xlink" x="0px" y="0px"
	 viewBox="0 0 1098.68 1110.11" style="enable-background:new 0 0 1098.68 1110.11;" xml:space="preserve">
<style type="text/css">
	.st0{fill:#F26849;}
	.st1{fill:#204F8C;}
	.st2{fill:#F2784B;}
	.st3{fill:#165F8C;}
	.st4{fill:#FFFFFF;}
</style>
<path class="st0" d="M549.58,555.05h-540v-307.2c0-128.57,104.23-232.8,232.8-232.8h307.2V555.05z"/>
<path class="st1" d="M856.78,1095.05h-307.2v-540h540v307.2C1089.58,990.83,985.35,1095.05,856.78,1095.05z"/>
<path class="st2" d="M1089.58,555.05h-540v-540h307.2c128.57,0,232.8,104.23,232.8,232.8V555.05z"/>
<path class="st3" d="M549.58,1095.05h-307.2c-128.57,0-232.8-104.23-232.8-232.8v-307.2h540V1095.05z"/>
<path class="st2" d="M218.76,555.05h330.82V224.23H377.71c-87.78,0-158.94,71.16-158.94,158.94V555.05z"/>
<path class="st1" d="M549.58,555.05H880.4V383.18c0-87.78-71.16-158.94-158.94-158.94H549.58V555.05z"/>
<path class="st3" d="M549.58,885.87h171.87c87.78,0,158.94-71.16,158.94-158.94V555.05H549.58V885.87z"/>
<path class="st0" d="M377.71,885.87h171.87V555.05H218.76v171.87C218.76,814.71,289.93,885.87,377.71,885.87z"/>
<rect x="335.85" y="626.6" class="st4" width="8.41" height="46.88"/>
<rect x="335.85" y="433.33" class="st4" width="8.41" height="158.19"/>
<rect x="508.64" y="577.6" class="st4" width="8.22" height="95.88"/>
<rect x="423.58" y="433.33" class="st4" width="169.92" height="7.77"/>
<rect x="508.54" y="433.33" class="st4" width="8.41" height="106.97"/>
<rect x="680.68" y="554.7" class="st4" width="38.7" height="7.77"/>
<polygon class="st4" points="803.88,673.49 791.54,673.49 702.47,562.22 714.81,562.22 "/>
<path class="st4" d="M719.38,554.7c47.9,0,68.63-22.98,68.63-56.64c0-32.69-20.39-56.96-68.61-56.96h-46.61v-7.77h47.26
	c53.4,0,76.38,28.48,76.38,64.73c0,38.84-26.54,64.41-77.03,64.41L719.38,554.7z"/>
<rect x="672.78" y="507.73" class="st4" width="8.41" height="165.76"/>
<rect x="672.78" y="433.33" class="st4" width="8.41" height="38.2"/>
<path class="st4" d="M959.87,444.01l-92.89,229.48h-9.06l97.42-240.16h8.74l97.42,240.16h-9.06L959.87,444.01z"/>
<g>
	<path class="st4" d="M161.72,673.49h-8.74L57.5,433.33h9.06l90.63,229.15h0.32l90.95-229.15h8.74L161.72,673.49z"/>
</g>
</svg>
